<svg xmlns="http://www.w3.org/2000/svg" viewBox="0 0 353.61 72.54"><g id="Layer_2" data-name="Layer 2"><g id="Layer_1-2" data-name="Layer 1"><path d="M18.16,62.32.24,6.71A5,5,0,0,1,5,.18h9.83a5,5,0,0,1,4.84,3.73L32.22,52h.93L45.33,4A5,5,0,0,1,50.18.18h8.63a5,5,0,0,1,4.77,6.49L46.14,62.23a12,12,0,0,1-11.45,8.41h-5.1A12,12,0,0,1,18.16,62.32Z"/><path d="M169.14,65.64V15.58a1,1,0,0,0-1-1H153.82a5,5,0,0,1-5-5V5.18a5,5,0,0,1,5-5h48.55a5,5,0,0,1,5,5v4.4a5,5,0,0,1-5,5H188a1,1,0,0,0-1,1V65.64a5,5,0,0,1-5,5h-7.87A5,5,0,0,1,169.14,65.64Z"/><path d="M328.22.18a25.27,25.27,0,0,1,25.39,25.16C353.53,40.24,342.76,50,327.14,50H315.28V65.64a5,5,0,0,1-5,5h-7.92a5,5,0,0,1-5-5V5.18a5,5,0,0,1,5-5ZM315.28,36.46h8.1c7.62,0,12.11-3.91,12.11-11.23S331.05,14,323.48,14h-8.2Z"/><path d="M238,44.42c0,8.2,4.5,13,12.45,13s12.46-4.83,12.46-13V5.18a5,5,0,0,1,5-5h7.87a5,5,0,0,1,5,5V46.32c0,15.82-12,26.22-30.33,26.22s-30.32-10.4-30.32-26.22V5.18a5,5,0,0,1,5-5H233a5,5,0,0,1,5,5Z"/><path d="M115.18,0H98.11a25,25,0,0,0-25,25V45a25,25,0,0,0,25,25h17.07a25,25,0,0,0,25-25V25A25,25,0,0,0,115.18,0Zm12.65,21.5c-6.29,6.34-11.32,14.4-16.18,22.2-2.5,4-5.09,8.17-7.8,12a4.29,4.29,0,0,1-3.46,1.82h0a4.31,4.31,0,0,1-3.46-1.74c-1.14-1.54-3.09-4-5.14-6.66-2.8-3.58-5.68-7.28-7.25-9.46a4.31,4.31,0,0,1,7-5c1.47,2,4.43,5.83,7,9.18l1.59,2c1.39-2.15,2.78-4.38,4.22-6.68,5.11-8.21,10.4-16.69,17.38-23.72a4.31,4.31,0,0,1,6.11,6.07Z"/></g></g></svg>